<svg width="43" height="50" viewBox="0 0 43 50" fill="none" xmlns="http://www.w3.org/2000/svg">
<path d="M39.5021 38.8921C39.3825 38.4134 39.3825 37.8151 39.7415 37.4561C41.7758 33.7464 42.9725 29.558 42.9725 25.1303C42.9725 11.2488 31.1254 0 16.6455 0C10.4228 0 4.67873 2.15402 0.131348 5.6244C15.0898 8.85543 26.219 21.7796 26.219 37.0971C26.219 41.4051 25.3813 45.5935 23.7059 49.3032C26.0993 48.7049 28.373 47.7475 30.527 46.4312C31.0057 46.1918 31.4844 46.0722 31.963 46.3115L39.6218 49.0639C40.9381 49.5426 42.2545 48.2262 41.8955 46.7902L39.5021 38.8921Z" fill="#F82BA9" fill-opacity="0.2"/>
</svg>
