<svg width="16" height="15" viewBox="0 0 16 15" fill="none" xmlns="http://www.w3.org/2000/svg">
<path d="M8.88439 0.814574C8.71585 0.496222 8.44431 0.327682 8.06978 0.308956C7.71397 0.327682 7.44244 0.496222 7.25517 0.814574L5.45742 4.52244L1.41248 5.14042C1.05667 5.1966 0.822589 5.39323 0.71023 5.7303C0.59787 6.08611 0.672777 6.3951 0.934949 6.65727L3.8563 9.55053L3.15405 13.6517C3.1166 14.0075 3.23832 14.2977 3.51922 14.5224C3.81884 14.7284 4.1372 14.7472 4.47427 14.5786L8.06978 12.6685L11.6934 14.5786C12.0117 14.7472 12.3207 14.7284 12.6203 14.5224C12.92 14.2977 13.0417 14.0075 12.9855 13.6517L12.3114 9.55053L15.2327 6.65727C15.4761 6.3951 15.5511 6.08611 15.4574 5.7303C15.3263 5.39323 15.0829 5.1966 14.7271 5.14042L10.6821 4.52244L8.88439 0.814574Z" fill="#F82BA9"/>
</svg>
