<svg width="54" height="52" viewBox="0 0 54 52" fill="none" xmlns="http://www.w3.org/2000/svg">
<path d="M26.7117 0.966797C12.2319 0.966797 0.384766 12.2156 0.384766 26.0971C0.384766 30.5248 1.58144 34.7132 3.73547 38.4229C3.9748 38.9016 4.09447 39.3802 3.97481 39.8589L1.46178 47.8767C0.983105 49.3127 2.29945 50.629 3.73547 50.1503L11.3942 47.398C11.8729 47.2783 12.4712 47.2783 12.8302 47.5177C16.8989 49.911 21.566 51.2274 26.7117 51.2274C41.1916 51.2274 53.0387 39.9786 53.0387 26.0971C53.0387 12.2156 41.1916 0.966797 26.7117 0.966797ZM12.3516 30.8838C9.71887 30.8838 7.56485 28.7298 7.56485 26.0971C7.56485 23.4644 9.71887 21.3104 12.3516 21.3104C14.9843 21.3104 17.1383 23.4644 17.1383 26.0971C17.1383 28.7298 14.9843 30.8838 12.3516 30.8838ZM26.7117 30.8838C24.079 30.8838 21.925 28.7298 21.925 26.0971C21.925 23.4644 24.079 21.3104 26.7117 21.3104C29.3444 21.3104 31.4984 23.4644 31.4984 26.0971C31.4984 28.7298 29.3444 30.8838 26.7117 30.8838ZM41.0719 30.8838C38.4392 30.8838 36.2852 28.7298 36.2852 26.0971C36.2852 23.4644 38.4392 21.3104 41.0719 21.3104C43.7046 21.3104 45.8586 23.4644 45.8586 26.0971C45.8586 28.7298 43.7046 30.8838 41.0719 30.8838Z" fill="#F82BA9" fill-opacity="0.2"/>
</svg>
